<svg data-v-0dd9719b="" version="1.0" xmlns="http://www.w3.org/2000/svg" xmlns:xlink="http://www.w3.org/1999/xlink" width="100%" height="100%" viewBox="0 0 340.000000 250.000000" preserveAspectRatio="xMidYMid meet" color-interpolation-filters="sRGB" style="margin: auto;"> <rect data-v-0dd9719b="" x="0" y="0" width="100%" height="100%" fill="#fff" fill-opacity="1" class="background"></rect> <rect data-v-0dd9719b="" x="0" y="0" width="100%" height="100%" fill="url(#watermark)" fill-opacity="1" class="watermarklayer"></rect> <g data-v-0dd9719b="" fill="#333" class="icon-text-wrapper icon-svg-group iconsvg" transform="translate(46.5,94.97237396240234)"><g class="iconsvg-imagesvg" transform="translate(0,0)"><g><rect fill="#333" fill-opacity="0" stroke-width="2" x="0" y="0" width="60" height="60.05525083076431" class="image-rect"></rect> <svg x="0" y="0" width="60" height="60.05525083076431" filtersec="colorsb3507277007" class="image-svg-svg primary" style="overflow: visible;"><svg xmlns="http://www.w3.org/2000/svg" viewBox="-0.013509035110473633 0.0184478759765625 162.63131713867188 162.78170776367188"><path d="M37 12.89l16.15 27.9c-2.27 2-4.49 3.94-6.64 5.94a38 38 0 0 0-3.13 3.34c-2.65 3.16-2.63 3.18-6.32 1.06Q26.38 45 15.71 38.86c-3-1.72-3.05-1.81-1.12-4.51A81.13 81.13 0 0 1 37 12.89zM16.12 77.42H2.39C.55 77.48-.12 77 0 75a78.47 78.47 0 0 1 7.7-28.78c.75-1.57 1.42-1.81 2.87-1Q22.74 52.39 35 59.4c1.45.83 1.38 1.8 1 3.18-1.25 4.38-2.46 8.77-3.49 13.2-.35 1.5-1.17 1.65-2.35 1.65z" fill="#2092fd"></path><path d="M149.64 126.06a81.22 81.22 0 0 1-24 23.92c-.92-1.62-1.74-3.07-2.57-4.51-4.11-7.11-8.19-14.25-12.38-21.32-1-1.71-.81-2.6.73-4 3.23-2.84 6.18-6 9.13-9.15.86-.91 1.43-1.47 2.73-.71 8.62 5 17.28 10 25.92 15 .09.17.15.36.44.77z" fill="#fa6348"></path><path d="M118.31 9.11q-5.43 9.47-10.87 18.89c-1.35 2.35-2.8 4.64-4.09 7-.69 1.28-1.43 1.56-2.86 1.15-4.49-1.27-9.11-2.35-13.64-3.65a2.25 2.25 0 0 1-1.38-1.61c-.09-9.75-.06-19.49-.06-29.24C85.4-.2 86.71 0 87.9.05a79 79 0 0 1 25.94 6.53c1.31.58 2.6 1.21 3.9 1.84.13.06.26.25.57.69zM149.55 37.25c-3.48 2-7 4.07-10.46 6.09-5.13 3-10.25 5.95-15.44 8.8a2.86 2.86 0 0 1-2.6 0c-3.78-3.72-7.4-7.61-11.29-11.68 2.26-4 4.71-8.31 7.19-12.63s5.12-8.77 7.61-13.2c.69-1.22 1.39-1.62 2.6-.78a80 80 0 0 1 22.13 22.48 4 4 0 0 1 .26.92zM146.47 77.42c-4.57 0-9.15-.06-13.73 0-1.67 0-2.24-.53-2.61-2.22-.94-4.29-2.14-8.52-3.45-12.71-.5-1.61-.25-2.46 1.2-3.28q12.13-6.91 24.19-14c1.5-.88 2.14-.51 2.87 1a77 77 0 0 1 7.66 29c.11 1.75-.53 2.21-2.14 2.19-4.66-.02-9.33.02-13.99.02z" fill="#fca306"></path><path d="M77.24 146.59c0 4.66-.06 9.32 0 14 0 1.84-.68 2.32-2.43 2.19a78.53 78.53 0 0 1-28.7-7.78c-1.53-.74-1.77-1.45-.92-2.91 4.81-8.09 9.47-16.39 14.3-24.55a2.67 2.67 0 0 1 2.32-.87c4.42 1.08 8.77 2.49 13.2 3.51 1.81.42 2.3 1.2 2.26 2.93-.09 4.49-.03 8.98-.03 13.48z" fill="#fa6348"></path><path d="M52.86 122.33c-.27.53-.5 1.08-.79 1.59-4.53 7.86-9.1 15.69-13.56 23.58-1.07 1.89-1.93 2.3-3.87.92a84.13 84.13 0 0 1-20.53-20.62c-1.08-1.53-1-2.34.78-3.33 8-4.5 15.84-9.14 23.74-13.76 1.5-.87 2.48-.86 3.82.69 2.75 3.19 5.9 6 9 9a8.18 8.18 0 0 0 2.31 1.07z" fill="#2092fd"></path><path d="M118.54 154.15c-3.63 1.56-7 3.51-10.56 4.43-6.61 1.69-13.38 2.77-20.08 4.12-1.88.38-2.55-.31-2.53-2.26q.1-13.73 0-27.46c0-1.83.7-2.4 2.4-2.8 4.34-1 8.6-2.4 12.93-3.5a2.61 2.61 0 0 1 2.27.52c5.18 8.8 10.25 17.68 15.57 26.95z" fill="#fa6348"></path><path d="M44.39 8.66a74.35 74.35 0 0 1 20.86-7.21C68.41.92 71.6.58 74.77.09c1.68-.26 2.51.15 2.5 2.07-.06 9.4 0 18.81 0 28.21 0 1.41-.42 2-2 2.3-4.28.9-8.52 2-12.7 3.29-1.56.48-2.48.51-3.35-1-4.84-8.44-9.74-16.84-14.62-25.27a4.45 4.45 0 0 1-.21-1.03z" fill="#fca306"></path><path d="M16.19 85.59h13.73c1.63 0 2.24.47 2.61 2.21A127.94 127.94 0 0 0 36 100.22c.53 1.64.51 2.47-1.18 3.42-8 4.5-16 9.15-24 13.8-1.54.9-2.27 1-3.17-1A78.06 78.06 0 0 1 .06 88c-.06-1.85.35-2.46 2.15-2.43 4.66.07 9.32.02 13.98.02z" fill="#2092fd"></path><path d="M153.91 118.58l-19-10.93c-2.42-1.39-4.81-2.86-7.28-4.16-1.33-.69-1.52-1.38-1.08-2.82 1.34-4.35 2.55-8.76 3.62-13.19.32-1.34.81-1.88 2.14-1.88h28.24c1.29 0 2.16.32 2.06 1.85a76.7 76.7 0 0 1-8.7 31.13z" fill="#fa6348"></path></svg></svg> <!----></g></g> <g transform="translate(67,10.332626342773438)"><g data-gra="path-name" fill-rule="" class="tp-name iconsvg-namesvg"><g transform="scale(1)"><g><path d="M4.19-39.39L0 0 5.69 0 7.25-15.08 29.41-15.08 32.04-39.39 4.19-39.39ZM24.42-20.66L7.78-20.66 9.23-33.86 25.81-33.86 24.42-20.66ZM36.23-39.39L63.97-39.39 61.4-15.4 55.55-15.4 60.91 0 55.22 0 49.91-15.4 39.28-15.4 37.67 0 32.04 0 36.23-39.39ZM39.87-20.93L56.4-20.93 57.8-33.86 41.22-33.86 39.87-20.93ZM102.13 0L95.96 0 93.11-10.09 75.19-10.09 70.25 0 63.97 0 83.35-39.39 91.07-39.39 102.13 0ZM86.57-33.38L77.87-15.62 91.56-15.62 86.57-33.38ZM131.91-39.39L138.62-39.39 124.4-20.61 135.62 0 128.96 0 120.54-15.46 108.84 0 102.13 0 117.69-20.61 107.44-39.39 114.15-39.39 121.61-25.76 131.91-39.39ZM138.62 0L144.2 0 148.39-39.39 142.7-39.39 138.62 0ZM180-39.39L152.52-39.39 150.32-17.66 172.27-17.66 171.04-5.53 148.39-5.53 149.14 0 175.97 0 178.39-23.18 156.55-23.18 157.62-33.86 173.88-33.86 173.56-30.81 179.09-30.81 180-39.39Z" transform="translate(0, 39.38999938964844)"></path></g> <!----> <!----> <!----> <!----> <!----> <!----> <!----></g></g> <!----></g></g><defs v-gra="od"></defs></svg>